<svg xmlns="http://www.w3.org/2000/svg" viewBox="0 0 24 24" fill="none" stroke="currentColor" stroke-width="2" stroke-linecap="round" stroke-linejoin="round">
  <!-- Rocket body -->
  <path d="M9 9v-3a2 2 0 0 1 2-2h2a2 2 0 0 1 2 2v3"/>
  <path d="M9 9l-2 4v5a1 1 0 0 0 1 1h8a1 1 0 0 0 1-1v-5l-2-4"/>
  <!-- Rocket tip -->
  <path d="M11 4h2v2h-2z"/>
  <!-- Flames -->
  <path d="M7 13l-1 3 2-1"/>
  <path d="M17 13l1 3-2-1"/>
  <!-- Window -->
  <circle cx="12" cy="10" r="1"/>
  <!-- Stars -->
  <circle cx="5" cy="7" r="0.5"/>
  <circle cx="19" cy="5" r="0.5"/>
  <circle cx="4" cy="12" r="0.5"/>
  <circle cx="20" cy="10" r="0.5"/>
</svg>
