<svg xmlns="http://www.w3.org/2000/svg" viewBox="0 0 24 24" fill="none" stroke="currentColor" stroke-width="2" stroke-linecap="round" stroke-linejoin="round">
  <!-- Chat bubble -->
  <path d="M21 15a2 2 0 0 1-2 2H7l-4 4V5a2 2 0 0 1 2-2h14a2 2 0 0 1 2 2z"/>
  <!-- Clock inside chat -->
  <circle cx="12" cy="10" r="4"/>
  <path d="M12 8v2l1.5 1.5"/>
  <!-- Real-time indicators (dots) -->
  <circle cx="8" cy="14" r="0.8" fill="currentColor"/>
  <circle cx="10.5" cy="14" r="0.8" fill="currentColor"/>
  <circle cx="13" cy="14" r="0.8" fill="currentColor"/>
  <!-- Signal waves -->
  <path d="M16 6c1.5 1 2.5 2.5 2.5 4"/>
  <path d="M18 4c2.5 1.5 4 4 4 6"/>
</svg>
